#!OML:ASF F:\VICON\USERDATA\INSTALL\rory3\rory3.ASF
:FULLY-SPECIFIED
:DEGREES
64
root 0.6807450665076875 17.846865950421815 22.035012009123257 -3.31071017203213 0.10354199074182208 -2.815389930987684
lfemur -4.883078421786236 -1.8168353093433653 -20.210565204112722
ltibia 33.0893495457115
lfoot -14.913899091579358 -0.281087757480067
ltoes -17.137693801478868
rfemur -10.066695644005723 2.4060837905081187 25.516795884048896
rtibia 44.667127185303116
rfoot -10.505704129648658 -9.551742750922374
rtoes 4.49031224261423
lowerback 11.012550999326796 0.9613839945860864 0.6318846443869792
upperback 0.06144574821752785 1.3352361316491763 1.3183966911638978
thorax -6.195728241011139 0.7700798987837683 0.9780611968112475
lowerneck -16.471418898589572 -3.651171703908901 -1.7055003558707276
upperneck 21.32777412651122 -5.070992992780158 1.3678892041321673
head 9.611250973256695 -2.3184421881299713 0.05968726668296967
lclavicle -1.3551357802944882e-15 7.266333515358708e-16
lhumerus -34.467465665989494 5.031518930217699 82.99205616304798
lradius 21.64079146019718
lwrist 10.520035988455685
lhand -30.068769462856068 20.82325117874999
lfingers 7.125019999999999
lthumb -3.489067015187663 51.19901299802435
rclavicle -1.3551357800685744e-15 7.266333516716951e-16
rhumerus -28.09073187386195 -19.393720397979187 -74.54177539562235
rradius 23.965417160296532
rwrist 6.712449841836984
rhand -18.159058569371254 22.06912763530599
rfingers 7.125019999999999
rthumb 7.872890948172779 -7.638592443973774
65
root 0.6852089651941811 17.856441742814425 22.0957692576756 -3.0527054499359343 -0.09374938530279503 -3.0529794381499302
lfemur -4.409298952633913 -1.7641995107025337 -20.00157764174092
ltibia 33.91411654122957
lfoot -15.549995610526217 0.5254117827167013
ltoes -11.215885909190888
rfemur -10.69343677634931 2.505833047195973 25.710587615448965
rtibia 44.35428674210244
rfoot -10.931383926009154 -9.264170360479971
rtoes 3.433542548979804
lowerback 10.988008446186663 0.8477269970420772 0.7220018738041306
upperback 0.0524178126724458 1.1915085259949114 1.3953003375642652
thorax -6.228758195588683 0.713336949262159 1.203566498058902
lowerneck -16.535851028351992 -3.641000265865366 -1.6854135841649822
upperneck 21.342528070781356 -5.061453951632541 1.3535541129036261
head 9.625469564907247 -2.31116107826873 0.0516668418727424
lclavicle -1.355135780296289e-15 7.26633351534881e-16
lhumerus -34.79473825765126 5.605169114557988 83.05676391411623
lradius 22.102217221453653
lwrist 10.602364729519566
lhand -30.040701950863674 20.609137411653293
lfingers 7.125019999999999
lthumb -3.4121069983118724 51.03755047633913
rclavicle -1.3551357800660402e-15 7.266333516733157e-16
rhumerus -27.464156154226497 -18.798741434397655 -74.7698832469251
rradius 24.227367108933038
rwrist 6.515174022969543
rhand -18.12041766287953 22.1580770068373
rfingers 7.125019999999999
rthumb 7.8779976141891614 -7.32260880681585
66
root 0.69163859207012 17.878852339417115 21.99834644865912 -2.7369857305852086 -0.28753676858390353 -3.418801289629892
lfemur -4.208111376483991 -1.7116353817941767 -19.673713139591072
ltibia 35.12625791286539
lfoot -15.975701894187651 1.0244487184317266
ltoes -11.072266998308631
rfemur -11.108207690636265 2.6902428251133004 26.126084298938668
rtibia 42.89371182454448
rfoot -11.79009691932393 -9.127404668493064
rtoes 2.3321234658470225
lowerback 10.939263056265897 0.7328022082798493 0.9869126908411572
upperback 0.04711367297280192 1.094184517109023 1.50751085716188
thorax -6.239433223719161 0.6510534917647797 1.3381183547123667
lowerneck -16.596623479317227 -3.6282437527003824 -1.6739293291883217
upperneck 21.37303123002361 -5.042211178127385 1.3042659044496427
head 9.630715673396217 -2.3020963968020447 0.038912451554785926
lclavicle -1.3551357802967947e-15 7.266333515346362e-16
lhumerus -35.24219173732296 6.06186295069611 82.9144218594186
lradius 22.52714780674425
lwrist 10.773335464233462
lhand -29.86900824720602 20.920456126862554
lfingers 7.125019999999999
lthumb -3.173721441278941 51.432596967686926
rclavicle -1.3551357800627465e-15 7.266333516753624e-16
rhumerus -27.199682288259012 -18.314056675096104 -74.57294592482832
rradius 24.4871382004023
rwrist 5.624929052446289
rhand -18.047843690725053 22.39568767654536
rfingers 7.125019999999999
rthumb 7.89523313533996 -6.956893708937091
67
root 0.703336822957994 17.888604072334424 22.191908599928922 -2.789815030396778 -0.6034548305839694 -3.2608984020335825
lfemur -3.6725175612670675 -1.6853696892194368 -19.774219998584574
ltibia 36.10529075404064
lfoot -16.334327205429886 1.3627151584978567
ltoes -10.587793530772636
rfemur -11.509673674868303 2.8834508295482655 26.088584498187075
rtibia 41.65054409011548
rfoot -12.25951765832141 -8.86584338163323
rtoes 1.9786083486055421
lowerback 10.936887604594908 0.6507272936812472 0.8242367680381287
upperback 0.025954993986645913 0.9332363039901417 1.546078423821823
thorax -6.217712424073248 0.5901356370282604 1.4992745800205216
lowerneck -16.6077637817402 -3.619545763700874 -1.686247825427944
upperneck 21.41456152590922 -5.007864697655403 1.3267251531563196
head 9.639310878147008 -2.289428861691804 0.056555851756251496
lclavicle -1.3551357802926557e-15 7.266333515371499e-16
lhumerus -35.35508210069224 6.822855702735752 82.82628403408168
lradius 22.8416990226426
lwrist 10.901745842231916
lhand -29.87655494519284 20.280622456329557
lfingers 7.125019999999999
lthumb -3.069494493369696 51.05534444735291
rclavicle -1.3551357800682094e-15 7.266333516721364e-16
rhumerus -27.195180293981267 -18.066618621890534 -74.18379575073483
rradius 24.788078848652948
rwrist 4.858930816537677
rhand -18.054494529810633 22.48419778913341
rfingers 7.125019999999999
rthumb 7.860798884207956 -6.796710285111667
68
root 0.7261853909698636 17.894183649768387 22.796393034304323 -2.8917859794090135 -0.823626595081117 -2.964744999939667
lfemur -3.255070277613405 -1.6787721282299972 -20.04431919892755
ltibia 37.01562566994323
lfoot -16.568710406076395 1.757373849486647
ltoes -13.587679950902292
rfemur -11.968205664411409 2.9818512059052216 25.89578282635316
rtibia 40.46768091753974
rfoot -13.216581525191149 -8.869219417043812
rtoes 2.16216426858148
lowerback 10.917204295291867 0.5401763397814624 0.5360723821772166
upperback -0.0359646232486353 0.7163270756453872 1.5619184736723595
thorax -6.234769720586322 0.49010919343692944 1.6619007039742635
lowerneck -16.52134463816361 -3.6061497928614177 -1.7033725666507127
upperneck 21.41729204894097 -4.981143816743895 1.3922552231860905
head 9.622362732881463 -2.28002064907003 0.08894313371908855
lclavicle -1.3551357802922064e-15 7.266333515375528e-16
lhumerus -35.19053028754971 7.399641561446553 82.85292474772791
lradius 23.156513934435832
lwrist 10.34453916981425
lhand -29.78181678418906 19.70342433854595
lfingers 7.125019999999999
lthumb -2.909509373093189 50.712562692712304
rclavicle -1.3551357800789758e-15 7.266333516658041e-16
rhumerus -27.286789284634178 -17.87946513886375 -73.90344465914096
rradius 25.107590879931255
rwrist 4.0667929523391075
rhand -18.05690708363129 22.553664359123502
rfingers 7.125019999999999
rthumb 7.845692954703115 -6.685980061999119
69
root 0.7529001221782646 17.898198526799742 23.978156921153982 -2.9905026129823034 -0.9331985347643033 -2.6455963052339375
lfemur -2.3565548751984533 -1.6955857707415563 -20.242380609568322
ltibia 37.594187333028216
lfoot -16.955383867823024 1.877024947665412
ltoes -14.451255352667188
rfemur -12.382642657578762 2.9908790175805406 25.704312657342843
rtibia 39.35108897322049
rfoot -13.717171477420955 -8.832091568576912
rtoes 2.017564987780708
lowerback 10.879158745204105 0.42447493642981693 0.31464256271584956
upperback -0.0637476990015332 0.5387307740528877 1.5947488164252674
thorax -6.209065070488257 0.3956550434207209 1.864608700468981
lowerneck -16.52822788302762 -3.587165542192586 -1.6712259807201728
upperneck 21.480964171634014 -4.946889932923058 1.4347837203771971
head 9.661739284829961 -2.2659838832339587 0.10020062748151909
lclavicle -1.3551357802945206e-15 7.26633351536203e-16
lhumerus -34.97799637515426 7.7178148617858815 82.7773963554412
lradius 23.48688620059818
lwrist 10.04504553668678
lhand -29.705678642473305 19.076536675971287
lfingers 7.125019999999999
lthumb -2.7420347932176683 50.26568606084508
rclavicle -1.3551357800737687e-15 7.266333516689711e-16
rhumerus -27.389579987380046 -17.6956295694256 -73.74001887264804
rradius 25.444200892375306
rwrist 3.991255679025174
rhand -18.033467287581164 22.645073581243196
rfingers 7.125019999999999
rthumb 7.856801292584852 -6.444858758941109
70
root 0.7864467034690483 17.893650157584975 25.354244238483282 -3.1727318470293957 -1.059647231751988 -2.1720729766763367
lfemur -1.3407943343617115 -1.760434377222941 -20.59274202740454
ltibia 37.98755931417662
lfoot -17.25320670695896 1.814917863701233
ltoes -16.331658119457096
rfemur -12.886189032468721 2.9290010677698026 25.352692618632783
rtibia 38.806841412732894
rfoot -14.609226389128015 -9.085339341357361
rtoes 0.5915476940983591
lowerback 10.843465239984356 0.321771346661862 -0.06672246403726367
upperback -0.10468389240478575 0.3513870142521553 1.5780756398920293
thorax -6.220589287262661 0.288592545906143 2.04769498984221
lowerneck -16.504267712308565 -3.566338548664999 -1.66750211129716
upperneck 21.562264359600302 -4.927904508036383 1.4687880160407147
head 9.698676076412427 -2.2564735927647592 0.1171351842333413
lclavicle -1.3551357802989248e-15 7.266333515337346e-16
lhumerus -34.8449030299801 7.575219111663985 82.53507280387585
lradius 23.87042952630598
lwrist 10.350306612110085
lhand -29.825050865317365 18.409468322254906
lfingers 7.125019999999999
lthumb -2.820693420832573 49.53259985606199
rclavicle -1.3551357800714027e-15 7.266333516705581e-16
rhumerus -27.43579385052184 -17.493935309168773 -73.94420255787362
rradius 25.778608558400677
rwrist 4.247220820960584
rhand -18.020736701103804 22.711835837006674
rfingers 7.125019999999999
rthumb 7.818615639737906 -6.276768655115031
